<svg xmlns="http://www.w3.org/2000/svg" width="139" height="103.072" viewBox="0 0 139 103.072"><defs><style>.a{opacity:0.68;}.b{fill:#fbbebe;}.c{opacity:0.1;}.d{fill:#6c63ff;}.e{fill:#3f3d56;}.f{fill:none;stroke:#3f3d56;stroke-miterlimit:10;}.g{fill:#57b894;}.h{opacity:0.3;}</style></defs><g class="a" transform="translate(0 0.5)"><path class="b" d="M583.481,521.292s-18.46-2.215-24.92-5.722-54.455-5.168-54.455,5.722S559.3,536.982,559.3,536.982l28.981-1.661Z" transform="translate(-503.736 -451.763)"/><path class="c" d="M583.481,521.292s-18.46-2.215-24.92-5.722-54.455-5.168-54.455,5.722S559.3,536.982,559.3,536.982l28.981-1.661Z" transform="translate(-503.736 -451.763)"/><path class="d" d="M157,521.82l3.876,11.26,60.732.738V517.205s-23.259-5.353-41.718,6.092C179.89,523.3,158.107,520.713,157,521.82Z" transform="translate(-82.608 -454.322)"/><path class="c" d="M157,521.7l3.876,11.26,60.732.738V517.089s-23.259-5.353-41.718,6.092C179.89,523.181,158.107,520.6,157,521.7Z" transform="translate(-82.608 -454.224)"/><path class="e" d="M704.168,446.014c0,.629,1.411,1.1,1.549,1.7s-.7,1.517-.435,2.092a11.4,11.4,0,0,0,.968,1.684c.347.5,1.421.425,1.861.891a14.782,14.782,0,0,0,1.367,1.189c.467.388,1.1.47,1.631.827.5.34.444,1.587,1,1.9.534.3,1.351.058,1.93.324.556.255.849,1.178,1.443,1.4.573.218,1.282.124,1.888.313.586.182,1.242.153,1.856.306.6.149,1.052,1.044,1.673,1.164.6.117,1.313-.2,1.939-.107s1.321-.686,1.949-.627,1.194.415,1.824.444,1.228.3,1.857.3,1.279.591,1.9.562,1.2-.924,1.814-.981,1.377.877,1.988.79,1.12-1,1.725-1.122c.621-.121,1.423.534,2.019.384.614-.154.979-1.219,1.565-1.4.606-.189,1.357.067,1.929-.151.594-.226,1.318-.19,1.874-.445.579-.266.995-.9,1.528-1.191.559-.31.816-1.077,1.321-1.417.531-.358,1.34-.312,1.807-.7.493-.41,1.417-.432,1.833-.873a13.87,13.87,0,0,0,.965-1.748c.366-.524-.352-1.632-.1-2.186.265-.575,1.374-.808,1.511-1.41a8.874,8.874,0,0,0,.217-1.915c0-.629-.948-1.11-1.087-1.717s.56-1.466.3-2.041c-.256-.554-.223-1.405-.589-1.93-.348-.5-1.215-.693-1.655-1.159-.416-.441-1.161-.564-1.654-.974-.467-.388-.408-1.56-.939-1.917-.505-.34-1.21-.5-1.769-.8-.534-.3-1.289-.246-1.868-.512-.556-.255-1.426.248-2.02.022-.573-.218-1.038-.694-1.644-.882-.586-.183-.862-1.574-1.476-1.728-.6-.149-1.331.1-1.951-.022-.6-.117-1.418.981-2.043.892s-1.067-1.553-1.7-1.611-1.308.7-1.938.673-1.237.417-1.867.417-1.257-.611-1.874-.582-1.185.836-1.8.893-1.4-1.169-2.01-1.082-1.108,1.038-1.713,1.155c-.621.121-1.4-.468-1.995-.319-.614.154-.984,1.162-1.57,1.345-.606.189-.979.9-1.552,1.118-.594.226-1.7-.831-2.254-.575-.579.266-1.079.726-1.613,1.022-.559.31-1.446.154-1.951.494-.531.358-.662,1.317-1.129,1.706-.493.41-1.306.534-1.723.975-.44.467-.5,1.3-.849,1.8a10.629,10.629,0,0,0-.61,1.8c-.265.575-.973,1.01-1.11,1.611A9.578,9.578,0,0,0,704.168,446.014Z" transform="translate(-699.211 -383.223)"/><path class="b" d="M647.326,555.427s-20.859-10.706-34.335-6.646-32.3-2.953-34.519-.554-5.353,28.243,21.228,29.72a179.188,179.188,0,0,0,49.287-4.43Z" transform="translate(-575.887 -481.098)"/><path class="d" d="M164.878,556.373s-8.235-.521-7.866,2.432.738,25.843,2.954,26.4,19.752.554,26.951.554h40.611V550.367s-28.8-1.715-43.2,5.485C184.332,555.852,167.021,555.6,164.878,556.373Z" transform="translate(-88.527 -483.185)"/><path class="f" d="M789.109,236.779a4.243,4.243,0,0,1,3.657,2.557c.914,2.21-.263,4.807-2.03,6.418s-4.038,2.533-6.1,3.744a16.35,16.35,0,0,0-6.647,6.783,10.034,10.034,0,0,0,.1,9.257c1.513,2.57,4.263,4.108,6.886,5.527" transform="translate(-751.338 -218.944)"/><path class="f" d="M836.175,150.885a4.242,4.242,0,0,1,3.657,2.557c.915,2.21-.263,4.807-2.03,6.418s-4.038,2.533-6.1,3.744a16.352,16.352,0,0,0-6.647,6.783,10.035,10.035,0,0,0,.1,9.257c1.513,2.57,4.263,4.108,6.886,5.527" transform="translate(-805.787 -146.526)"/><path class="f" d="M891.125,166.627a4.242,4.242,0,0,1,4.457-.217c2.076,1.188,2.734,3.962,2.324,6.318s-1.642,4.475-2.532,6.7a16.352,16.352,0,0,0-1.1,9.432,10.034,10.034,0,0,0,5.743,7.261c2.769,1.106,5.885.639,8.828.155" transform="translate(-885.015 -159.169)"/><ellipse class="g" cx="4.43" cy="2.152" rx="4.43" ry="2.152" transform="translate(23.074 31.012)"/><ellipse class="f" cx="4.43" cy="2.152" rx="4.43" ry="2.152" transform="translate(23.628 30.643)"/><ellipse class="g" cx="4.43" cy="2.152" rx="4.43" ry="2.152" transform="translate(13.475 29.166)"/><ellipse class="f" cx="4.43" cy="2.152" rx="4.43" ry="2.152" transform="translate(14.029 28.797)"/><ellipse class="g" cx="4.43" cy="2.152" rx="4.43" ry="2.152" transform="translate(11.999 37.288)"/><ellipse class="f" cx="4.43" cy="2.152" rx="4.43" ry="2.152" transform="translate(12.552 36.919)"/><ellipse class="g" cx="4.43" cy="2.152" rx="4.43" ry="2.152" transform="translate(12.922 16.983)"/><ellipse class="f" cx="4.43" cy="2.152" rx="4.43" ry="2.152" transform="translate(13.475 16.614)"/><ellipse class="g" cx="4.43" cy="2.152" rx="4.43" ry="2.152" transform="translate(23.997 15.691)"/><ellipse class="f" cx="4.43" cy="2.152" rx="4.43" ry="2.152" transform="translate(24.551 15.321)"/><ellipse class="g" cx="4.43" cy="2.152" rx="4.43" ry="2.152" transform="translate(19.013 11.076)"/><ellipse class="f" cx="4.43" cy="2.152" rx="4.43" ry="2.152" transform="translate(19.567 10.707)"/><ellipse class="g" cx="4.43" cy="2.152" rx="4.43" ry="2.152" transform="translate(8.122 11.999)"/><ellipse class="f" cx="4.43" cy="2.152" rx="4.43" ry="2.152" transform="translate(8.676 11.63)"/><ellipse class="g" cx="4.43" cy="2.152" rx="4.43" ry="2.152" transform="translate(0 18.091)"/><ellipse class="f" cx="4.43" cy="2.152" rx="4.43" ry="2.152" transform="translate(0.554 17.721)"/><ellipse class="g" cx="4.43" cy="2.152" rx="4.43" ry="2.152" transform="translate(28.612 7.384)"/><ellipse class="f" cx="4.43" cy="2.152" rx="4.43" ry="2.152" transform="translate(29.166 7.015)"/><ellipse class="g" cx="4.43" cy="2.152" rx="4.43" ry="2.152" transform="translate(25.843 0.369)"/><ellipse class="f" cx="4.43" cy="2.152" rx="4.43" ry="2.152" transform="translate(26.397 0)"/><ellipse class="g" cx="4.43" cy="2.152" rx="4.43" ry="2.152" transform="translate(0.185 5.538)"/><ellipse class="f" cx="4.43" cy="2.152" rx="4.43" ry="2.152" transform="translate(0.738 5.169)"/><ellipse class="g" cx="4.43" cy="2.152" rx="4.43" ry="2.152" transform="translate(40.98 22.521)"/><ellipse class="f" cx="4.43" cy="2.152" rx="4.43" ry="2.152" transform="translate(41.534 22.151)"/><ellipse class="g" cx="4.43" cy="2.152" rx="4.43" ry="2.152" transform="translate(25.659 21.413)"/><ellipse class="f" cx="4.43" cy="2.152" rx="4.43" ry="2.152" transform="translate(26.212 21.044)"/><ellipse class="g" cx="4.43" cy="2.152" rx="4.43" ry="2.152" transform="translate(5.538 23.074)"/><ellipse class="f" cx="4.43" cy="2.152" rx="4.43" ry="2.152" transform="translate(6.092 22.705)"/><ellipse class="g" cx="4.43" cy="2.152" rx="4.43" ry="2.152" transform="translate(16.244 23.813)"/><ellipse class="f" cx="4.43" cy="2.152" rx="4.43" ry="2.152" transform="translate(16.798 23.444)"/><ellipse class="g" cx="4.43" cy="2.152" rx="4.43" ry="2.152" transform="translate(15.506 5.353)"/><ellipse class="f" cx="4.43" cy="2.152" rx="4.43" ry="2.152" transform="translate(16.06 4.984)"/><ellipse class="g" cx="4.43" cy="2.152" rx="4.43" ry="2.152" transform="translate(34.519 16.798)"/><ellipse class="f" cx="4.43" cy="2.152" rx="4.43" ry="2.152" transform="translate(35.073 16.429)"/><ellipse class="g" cx="4.43" cy="2.152" rx="4.43" ry="2.152" transform="translate(31.935 25.105)"/><ellipse class="f" cx="4.43" cy="2.152" rx="4.43" ry="2.152" transform="translate(32.489 24.736)"/><g class="h" transform="translate(35.129 38.943)"><ellipse class="g" cx="2.321" cy="1.005" rx="2.321" ry="1.005" transform="translate(2.265 5.033) rotate(-119.201)"/><ellipse class="f" cx="2.321" cy="1.005" rx="2.321" ry="1.005" transform="translate(2.557 5.202) rotate(-119.201)"/></g><g class="h" transform="translate(12.5 43.147)"><ellipse class="g" cx="1.005" cy="2.321" rx="1.005" ry="2.321" transform="translate(1.341 4.916) rotate(-131.828)"/><ellipse class="f" cx="1.005" cy="2.321" rx="1.005" ry="2.321" transform="translate(1.442 4.594) rotate(-131.828)"/></g><g class="h" transform="translate(33.174 31.518)"><ellipse class="g" cx="1.005" cy="2.321" rx="1.005" ry="2.321" transform="translate(1.341 4.916) rotate(-131.828)"/><ellipse class="f" cx="1.005" cy="2.321" rx="1.005" ry="2.321" transform="translate(1.442 4.594) rotate(-131.828)"/></g></g></svg>