<svg xmlns="http://www.w3.org/2000/svg" width="39.3" height="39.3" viewBox="0 0 39.3 39.3"><defs><style>.a{fill:#fffcee;}.b{fill:#fed400;}</style></defs><path class="a" d="M31.931,39.3H7.369A7.368,7.368,0,0,1,0,31.931V7.369A7.368,7.368,0,0,1,7.369,0H31.931A7.368,7.368,0,0,1,39.3,7.369V31.931A7.368,7.368,0,0,1,31.931,39.3Z"/><path class="b" d="M25.777,8H10.3A2.3,2.3,0,0,0,8,10.3V25.776a2.3,2.3,0,0,0,2.3,2.3H25.776a2.3,2.3,0,0,0,2.3-2.3V10.3A2.3,2.3,0,0,0,25.777,8ZM18.039,23.895a.837.837,0,1,1,.837-.837A.837.837,0,0,1,18.039,23.895Zm.837-4.184a.837.837,0,1,1-1.674,0V13.019a.837.837,0,1,1,1.674,0Z" transform="translate(1.611 1.611)"/></svg>