<svg xmlns="http://www.w3.org/2000/svg" width="29.747" height="26.334" viewBox="0 0 29.747 26.334"><defs><style>.a{fill:#a26bf2;stroke:#a26bf2;stroke-width:0.3px;}</style></defs><g transform="translate(0.151 0.171)"><g transform="translate(0 0)"><path class="a" d="M29.131,37.948,15.174,27.942a.778.778,0,0,0-.9,0L.313,37.948A.739.739,0,0,0,.147,39a.776.776,0,0,0,1.069.162l13.505-9.682,13.505,9.682A.776.776,0,0,0,29.3,39,.739.739,0,0,0,29.131,37.948Z" transform="translate(0.001 -27.798)"/></g><g transform="translate(3.179 11.842)"><path class="a" d="M78.77,232.543a.76.76,0,0,0-.77.749v11.923H71.844v-6.509a3.85,3.85,0,0,0-7.7,0v6.509H57.991V233.292a.77.77,0,0,0-1.539,0v12.673a.76.76,0,0,0,.77.749h7.7a.761.761,0,0,0,.767-.691.55.55,0,0,0,0-.058v-7.258a2.31,2.31,0,0,1,4.618,0v7.258a.537.537,0,0,0,0,.058.761.761,0,0,0,.767.691h7.7a.76.76,0,0,0,.77-.749V233.292A.76.76,0,0,0,78.77,232.543Z" transform="translate(-56.452 -232.543)"/></g></g></svg>